<svg xmlns="http://www.w3.org/2000/svg" width="1000" height="674.183" version="1.0"><path class="ps00" d="M654.5 442.194L448.882 84.846 596.598 0l255.686 442.194H654.5m-547.678-50.067l147.716-85.42 78.158 135.487h-197.21l-28.664-50.067M396.713 670.17h42.041V500.096h-42.04V670.17zm526.849 4.013c-47.01 0-75.292-24.269-76.82-58.475h44.334c0 10.701 6.688 26.371 35.353 26.944 19.109 0 28.09-11.274 28.09-19.682-1.146-13.377-17.963-14.524-35.925-17.39-17.963-2.867-33.25-6.115-44.334-11.848-14.142-7.262-23.696-22.931-23.696-40.894 0-30.384 26.37-54.462 70.323-54.462 42.614 0 69.558 22.358 72.425 55.608h-42.806c-.382-8.981-2.102-23.122-27.326-23.122-17.008 0-28.282 3.44-29.238 15.288 0 17.389 35.353 16.243 62.87 23.504 26.372 6.688 43.188 23.123 43.188 46.054 0 42.232-34.206 58.475-76.438 58.475M279.954 240.398l147.717-85.229L593.35 442.194H438.754v42.04h-42.04v-42.231l-116.76-201.605"/><path class="ps01" d="M283.776 674.183c-48.92 0-88.668-39.939-88.668-88.286 0-48.92 39.748-87.521 88.668-87.521 18.536 0 35.353 4.968 50.067 15.096v-71.278h42.04V670.17h-42.04v-11.275c-14.714 9.555-31.53 15.288-50.067 15.288zm-48.347-88.286c0 26.371 22.55 48.347 49.494 48.347 26.37 0 48.92-21.976 48.92-48.347 0-26.37-22.55-48.92-48.92-48.92-26.945 0-49.494 22.55-49.494 48.92m359.067-143.703h41.468V670.17h-41.468v-11.275c-14.14 9.555-31.53 15.288-50.64 15.288-48.347 0-88.094-39.939-88.094-88.286 0-48.92 39.747-87.521 88.094-87.521 19.11 0 35.926 4.968 50.64 15.096v-71.278zm-97.84 143.703c0 26.371 22.549 48.347 48.347 48.347 26.944 0 49.493-21.976 49.493-48.347 0-26.37-22.549-48.92-49.493-48.92-25.798 0-48.347 22.55-48.347 48.92M738.2 674.183c-48.156 0-88.095-39.939-88.095-88.286 0-48.92 39.939-87.521 88.095-87.521 18.536 0 35.926 4.968 50.067 15.096v-13.567h42.04V670.17h-42.04v-11.275c-14.141 9.555-30.958 15.288-50.067 15.288zM691 585.897c0 26.371 22.549 48.347 48.92 48.347 26.37 0 48.347-21.976 48.347-48.347 0-26.37-21.976-48.92-48.347-48.92-26.371 0-48.92 22.55-48.92 48.92m-650.488 0c0 26.371 22.55 48.347 48.92 48.347 26.945 0 49.494-21.976 49.494-48.347 0-26.37-22.55-48.92-49.494-48.92-26.37 0-48.92 22.55-48.92 48.92zm47.774 88.286C39.939 674.183 0 634.244 0 585.897c0-48.92 39.939-87.521 88.286-87.521 18.536 0 35.926 4.968 50.64 15.096v-13.567h41.468V670.17h-41.468v-11.275c-14.141 9.555-31.53 15.288-50.64 15.288" fill-rule="evenodd"/></svg>